<svg width="29" height="27" viewBox="0 0 29 27" fill="none" xmlns="http://www.w3.org/2000/svg">
<path d="M19.3311 25.5961H9.66442C4.08192 25.5961 3.04275 23.1773 2.77692 20.826L1.87067 11.8148C1.73775 10.6335 1.7015 8.8898 2.95817 7.5848C4.04567 6.4598 5.84609 5.9198 8.45609 5.9198H20.5394C23.1615 5.9198 24.9619 6.47105 26.0373 7.5848C27.294 8.8898 27.2578 10.6335 27.1248 11.826L26.2186 20.8148C25.9528 23.1773 24.9136 25.5961 19.3311 25.5961ZM8.45609 7.59605C6.414 7.59605 5.01234 7.9673 4.29942 8.7098C3.70734 9.3173 3.514 10.251 3.67109 11.646L4.57734 20.6573C4.78275 22.4348 5.30234 23.9086 9.66442 23.9086H19.3311C23.6811 23.9086 24.2128 22.4348 24.4182 20.646L25.3244 11.6573C25.4815 10.251 25.2882 9.3173 24.6961 8.7098C23.9832 7.9673 22.5815 7.59605 20.5394 7.59605H8.45609Z" fill="black"/>
<path d="M19.3332 7.59375C18.8378 7.59375 18.4269 7.21125 18.4269 6.75V5.85C18.4269 3.8475 18.4269 3.09375 15.4665 3.09375H13.5332C10.5728 3.09375 10.5728 3.8475 10.5728 5.85V6.75C10.5728 7.21125 10.1619 7.59375 9.6665 7.59375C9.17109 7.59375 8.76025 7.21125 8.76025 6.75V5.85C8.76025 3.87 8.76025 1.40625 13.5332 1.40625H15.4665C20.2394 1.40625 20.2394 3.87 20.2394 5.85V6.75C20.2394 7.21125 19.8286 7.59375 19.3332 7.59375ZM14.4998 18.8438C11.1769 18.8438 11.1769 16.9312 11.1769 15.7837V14.625C11.1769 13.0387 11.5878 12.6562 13.2915 12.6562H15.7082C17.4119 12.6562 17.8228 13.0387 17.8228 14.625V15.75C17.8228 16.92 17.8228 18.8438 14.4998 18.8438ZM12.9894 14.3438V15.7837C12.9894 16.9425 12.9894 17.1562 14.4998 17.1562C16.0103 17.1562 16.0103 16.9763 16.0103 15.7725V14.3438H12.9894Z" fill="black"/>
<path d="M16.9169 16.614C16.4698 16.614 16.071 16.299 16.0227 15.8715C15.9623 15.4102 16.3127 14.9827 16.8081 14.9265C19.9981 14.5552 23.0552 13.4302 25.6289 11.6865C26.0277 11.4052 26.5956 11.4952 26.8977 11.8777C27.1877 12.249 27.1031 12.7777 26.6923 13.059C23.8648 14.9715 20.5298 16.1977 17.0256 16.614H16.9169ZM12.0835 16.6275H11.9748C8.66394 16.2787 5.43769 15.1537 2.64644 13.3762C2.44882 13.2501 2.3126 13.0565 2.26735 12.8374C2.22211 12.6184 2.27149 12.3916 2.40477 12.2062C2.68269 11.8237 3.2506 11.7225 3.66144 11.9812C6.21102 13.6012 9.14727 14.625 12.1681 14.9512C12.6635 15.0075 13.026 15.4237 12.9656 15.885C12.9294 16.3125 12.5427 16.6275 12.0835 16.6275Z" fill="black"/>
</svg>
