<svg width="28" height="29" viewBox="0 0 28 29" fill="none" xmlns="http://www.w3.org/2000/svg">
<path fill-rule="evenodd" clip-rule="evenodd" d="M7.27984 2.41931H19.5298C21.1303 2.37061 22.6831 2.98686 23.8424 4.13077C25.0016 5.27469 25.671 6.85126 25.7015 8.50931V17.6806C25.6061 21.0891 22.88 23.7832 19.5882 23.7222H17.6982C17.2231 23.7235 16.7736 23.9452 16.4732 24.3264L14.6882 26.6826C14.3892 27.0659 13.9389 27.2886 13.4632 27.2886C12.9874 27.2886 12.5372 27.0659 12.2382 26.6826L10.3948 24.2781C10.0944 23.8969 9.64491 23.6752 9.16984 23.6739H7.27984C3.98801 23.7349 1.26187 21.0407 1.1665 17.6322V8.46097C1.2556 5.04958 3.98552 2.35167 7.27984 2.41931ZM19.5415 21.9097C21.8847 21.9707 23.8349 20.0588 23.9048 17.6322V8.50931C23.835 6.07787 21.8776 4.16409 19.5298 4.23181H7.27984C4.93211 4.16409 2.97471 6.07787 2.90484 8.50931V17.6322C2.97471 20.0637 4.93211 21.9774 7.27984 21.9097H9.16984C10.1815 21.9099 11.1384 22.3855 11.7715 23.2026L13.4048 25.3535L15.0382 23.2026C15.6713 22.3855 16.6282 21.9099 17.6398 21.9097H19.5415Z" fill="black"/>
<path d="M9.02984 10.8293C8.54659 10.8293 8.15484 11.235 8.15484 11.7356V14.6356C8.15484 15.1361 8.54659 15.5418 9.02984 15.5418C9.51309 15.5418 9.90484 15.1361 9.90484 14.6356V11.7356C9.90484 11.235 9.51309 10.8293 9.02984 10.8293Z" fill="black"/>
<path d="M13.4048 10.8293C12.9216 10.8293 12.5298 11.235 12.5298 11.7356V14.6356C12.5298 15.1361 12.9216 15.5418 13.4048 15.5418C13.8881 15.5418 14.2798 15.1361 14.2798 14.6356V11.7356C14.2798 11.235 13.8881 10.8293 13.4048 10.8293Z" fill="black"/>
<path d="M17.7798 10.8293C17.2966 10.8293 16.9048 11.235 16.9048 11.7356V14.6356C16.9048 15.1361 17.2966 15.5418 17.7798 15.5418C18.2631 15.5418 18.6548 15.1361 18.6548 14.6356V11.7356C18.6548 11.235 18.2631 10.8293 17.7798 10.8293Z" fill="black"/>
</svg>
