<svg width="25" height="27" viewBox="0 0 25 27" fill="none" xmlns="http://www.w3.org/2000/svg">
<path fill-rule="evenodd" clip-rule="evenodd" d="M7.48379 17.565L8.44057 12.727C8.57986 12.0546 8.89361 11.4393 9.34491 10.9535L18.0869 1.57526C18.9734 0.597674 20.1771 0.0327216 21.4422 0.000398059C22.3963 -0.0144014 23.3164 0.384002 23.9979 1.10706C25.4871 3.01173 25.2948 5.85606 23.5654 7.5058L14.8234 16.9691C14.3746 17.4577 13.8062 17.7973 13.1851 17.9481L8.7158 18.9838H8.46678C8.14005 18.9974 7.82798 18.8365 7.6318 18.5533C7.43561 18.2701 7.3803 17.9008 7.48379 17.565ZM10.7342 12.4716C10.5506 12.6642 10.423 12.9108 10.3672 13.181L9.725 16.4868L12.7788 15.7774C13.0284 15.717 13.2562 15.5789 13.4341 15.3801L22.1761 5.91676C23.1338 5.0868 23.3239 3.59062 22.6087 2.51166C22.2955 2.18776 21.8751 2.0139 21.4422 2.02927C20.6959 2.06171 19.9906 2.4078 19.4762 2.99405L10.7342 12.4716Z" fill="black"/>
<path d="M23.3688 11.4075C22.8289 11.4151 22.3929 11.8871 22.3859 12.4716V20.5445C22.4034 21.6856 21.9969 22.7865 21.2576 23.6002C20.5184 24.4138 19.5082 24.872 18.4539 24.8718H5.96345C3.78432 24.8256 2.03821 22.9039 2.0315 20.5445V7.08017C2.06728 4.71801 3.84657 2.82348 6.02898 2.82379H13.4866C14.0294 2.82379 14.4695 2.34738 14.4695 1.7597C14.4695 1.17202 14.0294 0.695606 13.4866 0.695606H5.96345C2.69535 0.695392 0.0359131 3.54263 0 7.08017V20.5445C0 24.1098 2.66993 27 5.96345 27H18.4015C21.6899 26.9922 24.3518 24.1042 24.3518 20.5445V12.4716C24.3448 11.8871 23.9088 11.4151 23.3688 11.4075Z" fill="black"/>
</svg>
