<svg width="24" height="25" viewBox="0 0 24 25" fill="none" xmlns="http://www.w3.org/2000/svg">
<path d="M12 7.71195C11.5299 7.7684 11.1751 8.18301 11.1751 8.67594C11.1751 9.16888 11.5299 9.58349 12 9.63994C12.247 9.64351 12.4847 9.542 12.6582 9.35885C12.8317 9.17571 12.926 8.92677 12.9193 8.66956C12.9127 8.14356 12.505 7.71883 12 7.71195Z" fill="black"/>
<path d="M12 11.3892C11.7552 11.3857 11.5194 11.4855 11.3463 11.6658C11.1731 11.8462 11.0774 12.0918 11.0807 12.3468V16.3304C11.0807 16.8593 11.4923 17.288 12 17.288C12.5077 17.288 12.9193 16.8593 12.9193 16.3304V12.3723C12.9259 12.1139 12.832 11.8638 12.6589 11.6786C12.4857 11.4935 12.2481 11.3891 12 11.3892Z" fill="black"/>
<path fill-rule="evenodd" clip-rule="evenodd" d="M12 0C5.37538 0.00703789 0.00675637 5.59936 0 12.5C0 19.4036 5.37258 25 12 25C18.6274 25 24 19.4036 24 12.5C23.9932 5.59936 18.6246 0.00703789 12 0ZM12 23.0848C6.38802 23.0848 1.83861 18.3458 1.83861 12.5C1.83861 6.65419 6.38802 1.91522 12 1.91522C17.612 1.91522 22.1614 6.65419 22.1614 12.5C22.1546 18.3429 17.6092 23.0777 12 23.0848Z" fill="black"/>
</svg>
