<svg width="195" height="68" viewBox="0 0 195 68" fill="none" xmlns="http://www.w3.org/2000/svg">
<path d="M75.28 31V17H78.08V22.7H85.74V17H88.54V31H85.74V25.28H78.08V31H75.28ZM89.6612 31L96.6812 17H99.8013L106.861 31H103.741L102.081 27.7H94.4213L92.7613 31H89.6612ZM95.7013 25.14H100.781L98.2413 20.1L95.7013 25.14ZM108.004 31V17H110.804V28.32H119.124V31H108.004ZM124.704 25.6L118.264 17H121.784L126.104 22.76L130.424 17H133.944L127.504 25.6V31H124.704V25.6ZM137.864 25.28V31H135.064V17H137.864V22.72H139.464L144.924 17H148.724L142.084 24L149.244 31H145.344L139.404 25.28H137.864ZM75.28 50V36H78.08V41.7H85.74V36H88.54V50H85.74V44.28H78.08V50H75.28ZM91.2612 50V36H102.821V38.58H94.0613V41.7H102.501V44.28H94.0613V47.4H102.821V50H91.2612ZM105.582 50V36H108.382V47.32H116.702V50H105.582ZM119.454 50V36H126.614C129.614 36 132.134 37.98 132.134 40.96C132.134 43.78 129.474 45.92 126.614 45.92H122.254V50H119.454ZM129.334 40.96C129.334 39.58 128.174 38.58 126.614 38.58H122.254V43.3H126.614C128.154 43.3 129.334 42.28 129.334 40.96ZM134.303 50V36H145.863V38.58H137.103V41.7H145.543V44.28H137.103V47.4H145.863V50H134.303ZM158.324 50L155.224 45.92H151.424V50H148.624V36H155.824C158.824 36 161.304 37.98 161.304 40.96C161.304 42.92 160.024 44.56 158.284 45.38L161.804 50H158.324ZM158.504 40.96C158.504 39.58 157.384 38.58 155.824 38.58H151.424V43.3H155.824C157.364 43.3 158.504 42.28 158.504 40.96Z" fill="#0C7559"/>
<path fill-rule="evenodd" clip-rule="evenodd" d="M2.04248 33.6001L14.4984 21.5428V14.0346H22.2556L34.7111 1.97687L47.1674 14.0346H54.9243V21.5428L67.3802 33.6001L54.9243 45.6574V53.1659H47.1674L34.7111 65.2232L22.2556 53.1659H14.4984V45.6574L2.04248 33.6001Z" fill="#FAB31C"/>
<path fill-rule="evenodd" clip-rule="evenodd" d="M6.12533 33.5997L34.711 5.92933L63.2964 33.5997L34.711 61.2702L6.12533 33.5997ZM11.6103 11.2386H23.1006L34.711 0L46.3213 11.2386H57.8114V22.361L69.4218 33.5997L57.8114 44.8384V55.9607H46.3213L34.711 67.1995L23.1006 55.9607H11.6103V44.8384L0 33.5997L11.6103 22.361V11.2386ZM22.2549 14.0337H14.498V21.5424L11.6103 24.3373L2.04192 33.5997L11.6103 42.8618L14.498 45.6571V53.1656H22.2549L25.1423 55.9607L34.711 65.2229L44.2794 55.9607L47.1669 53.1656H54.9238V45.6571L57.8114 42.8621L67.3798 33.5997L57.8114 24.3375L54.9238 21.5424V14.0337H47.1669L44.2797 11.2386L34.711 1.97644L22.2549 14.0337Z" fill="#007556"/>
<path fill-rule="evenodd" clip-rule="evenodd" d="M6.12533 33.6002L34.711 5.9297L63.2964 33.6002L34.711 61.2708L6.12533 33.6002ZM11.6103 11.2392H23.1006L34.711 0.000549316L46.3213 11.2392H57.8114V22.3616L69.4218 33.6002L57.8114 44.8389V55.9613H46.3213L34.711 67.2001L23.1006 55.9613H11.6103V44.8389L0 33.6002L11.6103 22.3616V11.2392ZM22.2549 14.0343H14.498V21.543L11.6103 24.3379L2.04192 33.6002L11.6103 42.8624L14.498 45.6575V53.1662H22.2549L25.1423 55.9613L34.711 65.2235L44.2794 55.9613L47.1669 53.1662H54.9238V45.6575L57.8114 42.8627L67.3798 33.6002L57.8114 24.3381L54.9238 21.543V14.0343H47.1669L44.2797 11.2392L34.711 1.977L22.2549 14.0343Z" fill="#007556"/>
<path fill-rule="evenodd" clip-rule="evenodd" d="M42.0359 34.0823C45.0665 28.8985 41.9304 20.7087 35.0068 21.0997C31.8495 21.2782 28.9753 23.5102 28.8429 27.1384C28.7361 30.063 31.0363 32.7765 34.855 32.7394C36.8815 32.7198 39.0382 31.3262 38.9975 28.5845C38.9604 26.0838 36.7534 24.9725 35.5517 24.9725C34.35 24.9725 32.4869 26.3835 33.4319 27.7562C34.1093 28.7401 35.2142 27.6387 35.2142 27.6387C35.2142 27.6387 36.5795 27.1492 36.9567 28.4504C37.3215 29.7087 36.5114 30.9197 34.46 30.8672C32.2864 30.8152 30.6121 29.2463 30.7336 27.1421C30.8417 25.0248 32.543 23.2108 35.3512 23.2108C38.1462 23.2108 40.7954 25.8543 40.7954 28.7951C40.7954 31.4183 39.2382 34.7002 35.0003 34.9769C30.2688 35.2859 26.2956 32.2393 26.2956 27.5865C26.2625 22.4563 30.1142 19.3004 34.755 19.5341C43.7634 19.9876 45.4309 29.4064 42.0359 34.0823Z" fill="#FAB31C"/>
<path fill-rule="evenodd" clip-rule="evenodd" d="M50.5806 25.0754C50.5806 23.5999 47.9638 23.4799 47.9638 25.0754V33.4725L38.5092 41.7114V59.8163L45.3469 53.5802V44.0837L50.5806 39.5564V25.0754ZM18.8408 25.0754C18.8408 23.5999 21.4576 23.4799 21.4576 25.0754V33.4725L30.9122 41.7114V59.8163L24.0745 53.5802V44.0837L18.8408 39.5564V25.0754Z" fill="#FAB31C"/>
</svg>
