<svg width="28" height="29" viewBox="0 0 28 29" fill="none" xmlns="http://www.w3.org/2000/svg">
<path d="M23.1233 14.198C23.1233 13.6975 22.7316 13.2917 22.2483 13.2917C21.7651 13.2917 21.3733 13.6975 21.3733 14.198C21.4076 16.2864 20.6386 18.3032 19.2357 19.8037C17.8329 21.3043 15.9114 22.1654 13.895 22.1972C11.8785 22.1654 9.95707 21.3043 8.55423 19.8037C7.15138 18.3032 6.38234 16.2864 6.41665 14.198C6.41665 13.6975 6.0249 13.2917 5.54165 13.2917C5.0584 13.2917 4.66665 13.6975 4.66665 14.198C4.64015 19.1642 8.25141 23.3433 13.02 23.8647V26.8855C13.02 27.386 13.4117 27.7917 13.895 27.7917C14.3782 27.7917 14.77 27.386 14.77 26.8855V23.9613C19.5745 23.4365 23.1983 19.2011 23.1233 14.198Z" fill="black"/>
<path fill-rule="evenodd" clip-rule="evenodd" d="M19.8332 14.5001C19.8332 17.8368 17.2215 20.5417 13.9998 20.5417C10.7782 20.5417 8.1665 17.8368 8.1665 14.5001V8.45842C8.1665 5.12169 10.7782 2.41675 13.9998 2.41675C17.2215 2.41675 19.8332 5.12169 19.8332 8.45842V14.5001ZM13.9998 4.22925C11.7447 4.22925 9.9165 6.12271 9.9165 8.45842V14.5001C9.9165 16.8358 11.7447 18.7292 13.9998 18.7292C16.255 18.7292 18.0832 16.8358 18.0832 14.5001V8.45842C18.0832 6.12271 16.255 4.22925 13.9998 4.22925Z" fill="black"/>
</svg>
