<svg width="35" height="36" viewBox="0 0 35 36" fill="none" xmlns="http://www.w3.org/2000/svg">
<path d="M10.0331 28.347C9.43522 28.347 8.93938 27.837 8.93938 27.222V24.117C8.93938 23.502 9.43522 22.992 10.0331 22.992C10.6311 22.992 11.1269 23.502 11.1269 24.117V27.222C11.1269 27.852 10.6311 28.347 10.0331 28.347ZM17.4998 28.35C16.9019 28.35 16.4061 27.84 16.4061 27.225V21C16.4061 20.385 16.9019 19.875 17.4998 19.875C18.0977 19.875 18.5936 20.385 18.5936 21V27.225C18.5936 27.855 18.0977 28.35 17.4998 28.35ZM24.9665 28.35C24.3686 28.35 23.8727 27.84 23.8727 27.225V17.895C23.8727 17.28 24.3686 16.77 24.9665 16.77C25.5644 16.77 26.0602 17.28 26.0602 17.895V27.225C26.0602 27.855 25.579 28.35 24.9665 28.35ZM10.0331 19.7715C9.5373 19.7715 9.0998 19.4265 8.96855 18.9165C8.82272 18.3165 9.17272 17.7015 9.77063 17.5515C15.1373 16.1715 19.8623 13.1565 23.4644 8.85147L24.1352 8.04147C24.529 7.57647 25.2144 7.51647 25.6811 7.92147C26.1331 8.32647 26.1915 9.03147 25.7977 9.51147L25.1269 10.3215C21.2629 14.9799 16.0757 18.2745 10.2956 19.7415C10.2081 19.7715 10.1206 19.7715 10.0331 19.7715Z" fill="black"/>
<path d="M24.9668 14.283C24.3688 14.283 23.873 13.773 23.873 13.158V9.90295H20.6938C20.0959 9.90295 19.6001 9.39295 19.6001 8.77795C19.6001 8.16295 20.0959 7.65295 20.6938 7.65295H24.9668C25.5647 7.65295 26.0605 8.16295 26.0605 8.77795V13.173C26.0605 13.788 25.5793 14.283 24.9668 14.283Z" fill="black"/>
</svg>
