<svg width="1208" height="283" viewBox="0 0 1208 283" fill="none" xmlns="http://www.w3.org/2000/svg">
<g filter="url(#filter0_d_227_898)">
<path d="M129.821 233.672L21 257V32C21 23.7157 27.7157 17 36 17H1172C1180.28 17 1187 23.7157 1187 32V218.926C1187 227.239 1180.24 233.966 1171.93 233.926L1048.77 233.333H712.734L483.12 233.998H302.668L133.023 233.339C131.947 233.335 130.873 233.447 129.821 233.672Z" fill="white"/>
<path d="M20.5 257V257.619L21.1048 257.489L129.925 234.161C130.943 233.943 131.981 233.835 133.021 233.839L302.666 234.498H302.668H483.12H483.121L712.734 233.833H712.736H1048.77H1048.77L1171.93 234.426C1180.51 234.467 1187.5 227.516 1187.5 218.926V32C1187.5 23.4396 1180.56 16.5 1172 16.5H36C27.4396 16.5 20.5 23.4396 20.5 32V257Z" stroke="#01563F"/>
</g>
<defs>
<filter id="filter0_d_227_898" x="0" y="0" width="1208" height="282.237" filterUnits="userSpaceOnUse" color-interpolation-filters="sRGB">
<feFlood flood-opacity="0" result="BackgroundImageFix"/>
<feColorMatrix in="SourceAlpha" type="matrix" values="0 0 0 0 0 0 0 0 0 0 0 0 0 0 0 0 0 0 127 0" result="hardAlpha"/>
<feOffset dy="4"/>
<feGaussianBlur stdDeviation="10"/>
<feComposite in2="hardAlpha" operator="out"/>
<feColorMatrix type="matrix" values="0 0 0 0 0 0 0 0 0 0 0 0 0 0 0 0 0 0 0.3 0"/>
<feBlend mode="normal" in2="BackgroundImageFix" result="effect1_dropShadow_227_898"/>
<feBlend mode="normal" in="SourceGraphic" in2="effect1_dropShadow_227_898" result="shape"/>
</filter>
</defs>
</svg>
