<svg width="54" height="41" viewBox="0 0 54 41" fill="none" xmlns="http://www.w3.org/2000/svg">
<path d="M11.25 32.4583C11.25 33.4018 12.2574 34.1666 13.5 34.1666H42.75C43.9926 34.1666 45 33.4018 45 32.4583C45 31.5148 43.9926 30.75 42.75 30.75H13.5C12.2574 30.75 11.25 31.5148 11.25 32.4583Z" fill="white"/>
<path d="M11.25 20.5C11.25 21.4434 12.2574 22.2083 13.5 22.2083H42.75C43.9926 22.2083 45 21.4434 45 20.5C45 19.5565 43.9926 18.7916 42.75 18.7916H13.5C12.2574 18.7916 11.25 19.5565 11.25 20.5Z" fill="white"/>
<path d="M11.25 8.54163C11.25 9.48511 12.2574 10.25 13.5 10.25L42.75 10.25C43.9926 10.25 45 9.48511 45 8.54163C45 7.59814 43.9926 6.83329 42.75 6.83329L13.5 6.83329C12.2574 6.83329 11.25 7.59814 11.25 8.54163Z" fill="white"/>
</svg>
