<svg width="230" height="81" viewBox="0 0 230 81" fill="none" xmlns="http://www.w3.org/2000/svg">
<path fill-rule="evenodd" clip-rule="evenodd" d="M4.2959 40.3173L18.7885 25.9549V17.0113H27.8142L42.3062 2.64844L56.7994 17.0113H65.8247V25.9549L80.3171 40.3173L65.8247 54.6797V63.6236H56.7994L42.3062 77.9859L27.8142 63.6236H18.7885V54.6797L4.2959 40.3173Z" fill="#FAB31C"/>
<path fill-rule="evenodd" clip-rule="evenodd" d="M9.04685 40.3167L42.3067 7.35645L75.5662 40.3167L42.3067 73.2772L9.04685 40.3167ZM15.4287 13.6807H28.7979L42.3067 0.293579L55.8154 13.6807H69.1844V26.9295L82.6928 40.3167L69.1844 53.7041V66.9527H55.8154L42.3067 80.3403L28.7979 66.9527H15.4287V53.7041L1.91992 40.3167L15.4287 26.9295V13.6807ZM27.8138 17.0102H18.7885V25.9543L15.4287 29.2836L4.29572 40.3167L15.4287 51.3496L18.7885 54.6792V63.6232H27.8138L31.1733 66.9527L42.3067 77.9859L53.4396 66.9527L56.7993 63.6232H65.8246V54.6792L69.1844 51.3499L80.3172 40.3167L69.1844 29.2838L65.8246 25.9543V17.0102H56.7993L53.4399 13.6807L42.3067 2.64787L27.8138 17.0102Z" fill="#007556"/>
<path fill-rule="evenodd" clip-rule="evenodd" d="M9.04685 40.3167L42.3067 7.35625L75.5662 40.3167L42.3067 73.2773L9.04685 40.3167ZM15.4287 13.6807H28.7979L42.3067 0.293579L55.8154 13.6807H69.1844V26.9295L82.6928 40.3167L69.1844 53.7039V66.9527H55.8154L42.3067 80.3403L28.7979 66.9527H15.4287V53.7039L1.91992 40.3167L15.4287 26.9295V13.6807ZM27.8138 17.0102H18.7885V25.9544L15.4287 29.2837L4.29572 40.3167L15.4287 51.3496L18.7885 54.6791V63.6232H27.8138L31.1733 66.9527L42.3067 77.9859L53.4396 66.9527L56.7993 63.6232H65.8246V54.6791L69.1844 51.35L80.3172 40.3167L69.1844 29.2838L65.8246 25.9544V17.0102H56.7993L53.4399 13.6807L42.3067 2.64787L27.8138 17.0102Z" fill="#007556"/>
<path fill-rule="evenodd" clip-rule="evenodd" d="M85.9917 36.412V13.1857H91.7559V22.0111H109.595V13.1857H115.304V36.412H109.595V26.6255H91.7559V36.412H85.9917ZM119.428 67.3625H113.746V44.1361H119.428V67.3625ZM117.165 36.412L131.077 13.1857H136.574L150.699 36.412H144.288L141.331 31.3128H125.83L122.874 36.412H117.165ZM128.26 27.0736H139.003L133.543 17.3966L128.26 27.0736ZM151.487 36.412V13.1857H157.252V32.0632H175.626V36.412H151.487ZM179.788 36.412V25.975L166.983 13.1857H174.697L183.057 21.8461L191.529 13.1857H198.244L185.497 25.8745V36.412H179.788ZM198.747 36.412V13.1857H204.513V22.5693L218.185 13.1857H226.462L210.248 23.9429L228.273 36.412H219.237L204.513 25.9292V36.412H198.747ZM85.9917 67.3625V44.1361H91.7559V63.0137H110.131V67.3625H85.9917ZM124.826 67.3625V44.1361H149.695V48.2922H130.59V54.3532H140.873V58.6743H130.59V67.3625H124.826ZM154.133 67.3625V44.1361H179.28V48.2373H159.898V53.3H171.187V57.3012H159.898V63.0137H179.575V67.3625H154.133Z" fill="white"/>
<path fill-rule="evenodd" clip-rule="evenodd" d="M228.442 79.4883V76.2222H227.92L225.601 78.1463C225.505 78.2226 225.436 78.2811 225.39 78.3239C225.34 78.3753 225.284 78.4337 225.225 78.503C225.23 78.4361 225.235 78.3652 225.239 78.2865C225.242 78.2102 225.247 78.1541 225.251 78.1152C225.254 78.0653 225.256 78.0054 225.256 77.9376V76.2222H224.567V79.4883H225.091L227.511 77.4694C227.579 77.4105 227.63 77.3636 227.664 77.3312C227.715 77.2812 227.756 77.2387 227.783 77.2039C227.783 77.2411 227.777 77.2907 227.77 77.3527C227.763 77.4147 227.76 77.4585 227.76 77.4901C227.755 77.5529 227.753 77.6316 227.753 77.7237V79.4883H228.442ZM219.299 79.4883V76.2222H220.064V77.4901H222.46V76.2222H223.234V79.4883H222.46V78.0848H220.064V79.4883H219.299ZM215.116 76.8077H217.184V77.5035H216.054V78.1424H217.184V78.8769H215.116V78.1736L214.35 78.3325V78.718C214.35 79.0132 214.407 79.2157 214.515 79.3255C214.634 79.4338 214.851 79.4883 215.168 79.4883H217.267C217.42 79.4883 217.575 79.4423 217.724 79.3496C217.876 79.2554 217.952 79.0989 217.952 78.8769V78.2741C217.952 78.1362 217.92 78.0381 217.859 77.9804C217.797 77.922 217.705 77.8589 217.58 77.7922C217.682 77.7514 217.771 77.6941 217.843 77.6207C217.914 77.5473 217.952 77.4633 217.952 77.3636V76.9975C217.952 76.7024 217.897 76.5002 217.785 76.3878C217.669 76.2784 217.451 76.2237 217.133 76.2237H215.168C214.849 76.2237 214.634 76.2784 214.515 76.3886C214.407 76.5002 214.35 76.7024 214.35 76.9975V77.3074L215.116 77.427V76.8077ZM213.179 79.4883V76.2222H212.656L210.338 78.1463C210.242 78.2226 210.173 78.2811 210.128 78.3239C210.077 78.3753 210.026 78.4337 209.965 78.503C209.967 78.4361 209.974 78.3652 209.978 78.2865C209.982 78.2102 209.986 78.1541 209.992 78.1152C209.992 78.0653 209.995 78.0054 209.995 77.9376V76.2222H209.307V79.4883H209.829L212.248 77.4694C212.319 77.4105 212.369 77.3636 212.403 77.3312C212.454 77.2812 212.493 77.2387 212.523 77.2039C212.52 77.2411 212.516 77.2907 212.509 77.3527C212.5 77.4147 212.497 77.4585 212.497 77.4901C212.492 77.5529 212.489 77.6316 212.489 77.7237V79.4883H213.179ZM204.686 79.4883V78.0529L202.733 79.4883H201.483L203.953 77.7612L201.75 76.2222H202.861L204.686 77.5839V76.2222H205.459V77.5839L207.285 76.2222H208.398L206.213 77.7612L208.665 79.4883H207.435L205.459 78.0529V79.4883H204.686ZM193.794 78.8769H196.32V76.8077H193.794V78.8769ZM193.028 76.9975C193.028 76.7024 193.083 76.5002 193.193 76.3878C193.31 76.277 193.525 76.2222 193.847 76.2222H196.271C196.59 76.2222 196.805 76.277 196.914 76.3878C197.03 76.4969 197.09 76.6985 197.09 76.9946V78.7164C197.09 79.014 197.03 79.2157 196.914 79.3255C196.805 79.4338 196.59 79.4883 196.271 79.4883H193.847C193.529 79.4883 193.312 79.4338 193.193 79.3255C193.083 79.2133 193.028 79.0108 193.028 78.718V78.1611H192.184V79.4883H191.443V76.2222H192.184V77.5085H193.028V76.9975ZM190.331 79.4883V76.2222H189.807L187.49 78.1463C187.392 78.2226 187.321 78.2811 187.276 78.3239C187.226 78.3753 187.174 78.4337 187.113 78.503C187.116 78.4361 187.122 78.3652 187.127 78.2865C187.13 78.2102 187.134 78.1541 187.137 78.1152C187.141 78.0653 187.143 78.0054 187.143 77.9376V76.2222H186.455V79.4883H186.98L189.398 77.4694C189.467 77.4105 189.519 77.3636 189.552 77.3312C189.602 77.2812 189.645 77.2387 189.673 77.2039C189.671 77.2411 189.666 77.2907 189.659 77.3527C189.654 77.4147 189.649 77.4585 189.649 77.4901C189.645 77.5529 189.643 77.6316 189.643 77.7237V79.4883H190.331ZM181.424 79.4883V76.2222H182.191V77.4901H184.585V76.2222H185.357V79.4883H184.585V78.0848H182.191V79.4883H181.424ZM176.046 79.4883L177.904 76.2222H178.642L180.535 79.4883H179.67L179.275 78.7741H177.188L176.806 79.4883H176.046ZM177.521 78.1845H178.962L178.249 76.8577L177.521 78.1845ZM171.828 79.4883V76.2222H174.65C174.908 76.2222 175.098 76.2747 175.22 76.3766C175.333 76.4769 175.39 76.6375 175.39 76.8577V77.2545C175.39 77.4074 175.342 77.5314 175.245 77.6288C175.143 77.7293 175.002 77.788 174.823 77.8056C175.014 77.831 175.16 77.8994 175.264 78.0085C175.366 78.1144 175.418 78.2561 175.418 78.4329V78.8496C175.418 79.0607 175.337 79.2227 175.173 79.3325C175.018 79.4369 174.773 79.4883 174.445 79.4883H171.828ZM174.33 78.0708H172.582V78.8995H174.33C174.478 78.8995 174.575 78.8777 174.625 78.8356C174.676 78.792 174.702 78.7164 174.702 78.6097V78.3628C174.702 78.2538 174.676 78.1783 174.625 78.1339C174.574 78.0926 174.477 78.0708 174.33 78.0708ZM174.33 76.7558H172.582V77.5328H174.33C174.461 77.5328 174.551 77.517 174.604 77.4828C174.657 77.4432 174.682 77.3828 174.682 77.2997V76.9894C174.682 76.9049 174.657 76.8445 174.604 76.8052C174.551 76.7728 174.461 76.7558 174.33 76.7558ZM167.484 78.8769H170.013V76.8077H167.484V78.8769ZM166.717 76.9946C166.717 76.6991 166.773 76.4978 166.883 76.3878C167.001 76.277 167.218 76.2222 167.534 76.2222H169.961C170.281 76.2222 170.496 76.277 170.606 76.3878C170.722 76.4969 170.781 76.6985 170.781 76.9946V78.7164C170.781 79.014 170.722 79.2157 170.606 79.3255C170.496 79.4338 170.281 79.4883 169.961 79.4883H167.534C167.219 79.4883 167.001 79.4338 166.883 79.3255C166.773 79.2157 166.717 79.0132 166.717 78.7164V76.9946ZM161.966 79.4883L163.529 77.8114L161.938 76.2222H162.954L164.008 77.3312L165.009 76.2222H165.892L164.456 77.7237L166.23 79.4883H165.191L163.984 78.2226L162.871 79.4883H161.966ZM156.991 79.4883L158.847 76.2222H159.588L161.477 79.4883H160.616L160.22 78.7741H158.135L157.75 79.4883H156.991ZM158.466 78.1845H159.907L159.193 76.8577L158.466 78.1845ZM153.162 79.4883V76.2222H155.975C156.234 76.2222 156.425 76.2719 156.55 76.3696C156.665 76.4692 156.725 76.6318 156.725 76.8577V77.5839C156.725 77.8042 156.665 77.9641 156.55 78.0653C156.429 78.1681 156.236 78.218 155.975 78.218H153.915V79.4883H153.162ZM155.638 76.7876H153.915V77.654H155.638C155.771 77.654 155.862 77.6359 155.913 77.5973C155.959 77.5596 155.982 77.492 155.982 77.3951V77.0461C155.982 76.9503 155.959 76.882 155.913 76.8445C155.862 76.8077 155.771 76.7876 155.638 76.7876ZM150.805 76.8077V79.4883H150.038V76.8077H148.524V76.2222H152.323V76.8077H150.805ZM146.92 76.8077H144.852V78.8769H146.92V78.1736L147.687 78.3301V78.7164C147.687 79.0132 147.63 79.2141 147.52 79.3255C147.402 79.4338 147.184 79.4883 146.868 79.4883H144.902C144.586 79.4883 144.369 79.4338 144.252 79.3255C144.139 79.2141 144.084 79.0132 144.084 78.7164V76.9946C144.084 76.7024 144.139 76.5002 144.252 76.3878C144.368 76.277 144.586 76.2222 144.902 76.2222H146.868C147.185 76.2222 147.403 76.277 147.52 76.3878C147.63 76.5002 147.687 76.7024 147.687 76.9975V77.3055L146.92 77.427V76.8077ZM135.648 78.8769H138.177V76.8077H135.648V78.8769ZM134.881 76.9946C134.881 76.6991 134.936 76.4978 135.045 76.3878C135.164 76.277 135.38 76.2222 135.698 76.2222H138.127C138.444 76.2222 138.659 76.277 138.769 76.3878C138.886 76.4969 138.945 76.6985 138.945 76.9946V78.7164C138.945 79.014 138.886 79.2157 138.769 79.3255C138.659 79.4338 138.444 79.4883 138.127 79.4883H135.698C135.382 79.4883 135.165 79.4338 135.045 79.3255C134.936 79.2157 134.881 79.0132 134.881 78.7164V76.9946ZM130.936 79.4883V76.8379H133.119V79.4883H133.885V76.2222H133.069H130.171V76.9946V79.4883H130.936ZM125.225 79.4883V76.2222H122.409C122.149 76.2222 121.958 76.2723 121.834 76.3696C121.72 76.4692 121.662 76.6318 121.662 76.8577V77.6225C121.662 77.8413 121.72 78.0022 121.834 78.1043C121.954 78.204 122.143 78.2546 122.409 78.2546H122.839L121.318 79.4883H122.416L123.743 78.2546H124.47V79.4883H125.225ZM122.748 76.7876H124.47V77.6997H122.748C122.615 77.6997 122.524 77.6817 122.473 77.6426C122.426 77.6029 122.403 77.5353 122.403 77.4409V77.0461C122.403 76.9503 122.426 76.882 122.473 76.8445C122.524 76.8077 122.615 76.7876 122.748 76.7876ZM120.274 79.4883V76.2222H119.748L117.432 78.1463C117.335 78.2226 117.265 78.2811 117.221 78.3239C117.171 78.3753 117.117 78.4337 117.056 78.503C117.062 78.4361 117.065 78.3652 117.069 78.2865C117.074 78.2102 117.08 78.1541 117.081 78.1152C117.084 78.0653 117.087 78.0054 117.087 77.9376V76.2222H116.399V79.4883H116.923L119.34 77.4694C119.412 77.4105 119.462 77.3636 119.494 77.3312C119.547 77.2812 119.587 77.2387 119.615 77.2039C119.614 77.2411 119.61 77.2907 119.605 77.3527C119.598 77.4147 119.594 77.4585 119.592 77.4901C119.587 77.5529 119.585 77.6316 119.585 77.7237V79.4883H120.274ZM111.42 79.4883V76.2222H112.188V77.4901H114.581V76.2222H115.355V79.4883H114.581V78.0848H112.188V79.4883H111.42ZM105.889 79.4883L107.746 76.2222H108.487L110.377 79.4883H109.514L109.119 78.7741H107.033L106.651 79.4883H105.889ZM107.365 78.1845H108.806L108.092 76.8577L107.365 78.1845ZM101.896 79.4883V76.8379H104.078V79.4883H104.846V76.2222H104.026H101.129V76.9946V79.4883H101.896ZM95.781 79.4883V76.2222H96.4017L97.9526 78.1977L99.4713 76.2222H100.085V79.4883H99.3759V77.4694C99.3759 77.4105 99.3783 77.3617 99.383 77.325C99.3885 77.2754 99.3956 77.2078 99.3996 77.1224C99.3799 77.1595 99.361 77.1978 99.3429 77.234C99.3247 77.2697 99.3082 77.3021 99.294 77.3312C99.2538 77.4007 99.2263 77.4451 99.2082 77.4644L97.9707 79.0965H97.8164L96.5797 77.4585C96.5482 77.4166 96.508 77.3584 96.4647 77.2798C96.4214 77.2134 96.3946 77.1595 96.3812 77.1224C96.3883 77.1905 96.3954 77.2545 96.4009 77.3126V77.4694V79.4883H95.781ZM91.4433 78.8769H93.9702V76.8077H91.4433V78.8769ZM90.6745 76.9946C90.6745 76.6991 90.7305 76.4978 90.84 76.3878C90.9573 76.277 91.1755 76.2222 91.4929 76.2222H93.919C94.2387 76.2222 94.4538 76.277 94.5648 76.3878C94.6806 76.4969 94.7381 76.6985 94.7381 76.9946V78.7164C94.7381 79.014 94.6806 79.2157 94.5648 79.3255C94.4522 79.4338 94.2387 79.4883 93.919 79.4883H91.4929C91.1763 79.4883 90.9581 79.4338 90.84 79.3255C90.7305 79.2157 90.6745 79.0132 90.6745 78.7164V76.9946ZM85.6523 79.4883V76.2222H86.4258V77.5839L88.254 76.2222H89.3631L87.1796 77.7612L89.6317 79.4883H88.3997L86.4258 78.0529V79.4883H85.6523ZM85.7926 5.00451C85.7926 4.70357 85.8493 4.49753 85.9611 4.38747C86.0808 4.27443 86.303 4.21826 86.6259 4.21826H89.1008C89.4261 4.21826 89.6435 4.27443 89.7561 4.38747C89.8758 4.49665 89.9341 4.70357 89.9341 5.00451V6.76095C89.9341 7.06364 89.8758 7.27058 89.7561 7.38081C89.6435 7.49139 89.4245 7.54757 89.1008 7.54757H86.6259C86.3037 7.54757 86.0824 7.49139 85.9611 7.38081C85.8493 7.26776 85.7926 7.06276 85.7926 6.76095V5.00451ZM86.5739 5.51795H89.1512V4.81324H86.5739V5.51795ZM89.1512 6.09429H86.5739V6.92207H89.1512V6.09429ZM91.5638 7.54757V4.21826H92.1963L93.7764 6.22972L95.325 4.21826H95.9504V7.54757H95.2273V5.48841C95.2273 5.4303 95.2289 5.38063 95.2344 5.34154C95.2415 5.291 95.247 5.22142 95.2533 5.13496C95.2328 5.17564 95.2107 5.21667 95.1926 5.25329C95.1745 5.29327 95.1588 5.32338 95.1422 5.34821C95.1076 5.41072 95.08 5.45636 95.0587 5.4826L93.7969 7.14803H93.6393L92.3775 5.47589C92.3397 5.42535 92.2995 5.36585 92.2609 5.29489C92.2199 5.23326 92.1924 5.17934 92.1766 5.13496C92.1837 5.2061 92.1892 5.27041 92.1971 5.32922V5.48841V7.54757H91.5638ZM97.543 7.54757V4.21826H98.3236L98.3307 7.54757H97.543ZM102.657 4.79374H100.902V5.67821H102.657C102.793 5.67821 102.887 5.65708 102.937 5.61905C102.985 5.5819 103.008 5.51126 103.008 5.41248V5.05678C103.008 4.95958 102.985 4.89091 102.937 4.85129C102.887 4.81325 102.793 4.79374 102.657 4.79374ZM100.134 7.54757V4.21826H103.001C103.265 4.21826 103.461 4.26774 103.588 4.36846C103.706 4.46988 103.763 4.63541 103.763 4.8652V5.6062C103.763 5.82877 103.706 5.99323 103.588 6.0973C103.463 6.20014 103.269 6.24981 103.001 6.24981H100.902V7.54757H100.134ZM105.479 5.00451C105.479 4.70357 105.536 4.49753 105.648 4.38747C105.767 4.27443 105.989 4.21826 106.312 4.21826H108.785H109.62V6.92207H110.294V8.07595H109.62V7.54757H105.479V8.07595H104.764V6.92207H105.479V5.00451ZM106.26 6.92207H108.837V4.81324H106.26V6.92207ZM111.942 7.54757V4.21826H112.724L112.731 7.54757H111.942ZM122.528 4.81324H120.42V6.92207H122.528V6.20596L123.311 6.36476V6.76095C123.311 7.06136 123.253 7.26776 123.14 7.38081C123.019 7.49139 122.799 7.54757 122.477 7.54757H120.471C120.149 7.54757 119.929 7.49139 119.808 7.38081C119.695 7.26776 119.638 7.06136 119.638 6.76095V5.00451C119.638 4.70498 119.695 4.49806 119.808 4.38747C119.929 4.27443 120.149 4.21826 120.471 4.21826H122.477C122.8 4.21826 123.02 4.27443 123.14 4.38747C123.253 4.49806 123.311 4.70498 123.311 5.00627V5.32338L122.528 5.44596V4.81324ZM125.876 6.21741H127.345L126.617 4.8652L125.876 6.21741ZM124.373 7.54757L126.265 4.21826H127.02L128.947 7.54757H128.068L127.664 6.8182H125.535L125.145 7.54757H124.373ZM129.998 7.54757V4.21826H130.787V5.6062L132.648 4.21826H133.78L131.554 5.78633L133.533 7.18092H134.23V8.19838H133.485V7.54757H132.794L130.787 6.08284V7.54757H129.998ZM137.298 4.81324V7.54757H136.515V4.81324H134.975V4.21826H138.847V4.81324H137.298ZM140.438 6.21741H141.909L141.181 4.8652L140.438 6.21741ZM138.937 7.54757L140.83 4.21826H141.584L143.51 7.54757H142.632L142.228 6.8182H140.101L139.71 7.54757H138.937ZM144.612 7.54757V4.21826H145.394V5.50792H147.836V4.21826H148.624V7.54757H147.836V6.11542H145.394V7.54757H144.612ZM150.234 5.00451C150.234 4.70357 150.289 4.49753 150.403 4.38747C150.521 4.27443 150.744 4.21826 151.066 4.21826H153.539H154.374V6.92207H155.049V8.07595H154.374V7.54757H150.234V8.07595H149.518V6.92207H150.234V5.00451ZM151.014 6.92207H153.591V4.81324H151.014V6.92207ZM158.626 6.97317H156.868V6.08865H158.626C158.76 6.08865 158.854 6.10872 158.905 6.14782C158.952 6.1892 158.977 6.25505 158.977 6.35331V6.70938C158.977 6.8057 158.952 6.8749 158.905 6.9154C158.855 6.95449 158.76 6.97317 158.626 6.97317ZM156.102 4.21826V7.54757H158.97C159.235 7.54757 159.429 7.49805 159.556 7.3998C159.674 7.2959 159.734 7.12952 159.734 6.90202V6.15964C159.734 5.93759 159.674 5.77543 159.556 5.67154C159.434 5.568 159.237 5.51549 158.97 5.51549H156.868V4.21826H156.102ZM160.234 7.55391V4.21826H161.041V7.55391H160.234ZM164.791 4.79374H163.035V5.67821H164.791C164.928 5.67821 165.02 5.65708 165.072 5.61905C165.119 5.5819 165.142 5.51126 165.142 5.41248V5.05678C165.142 4.95958 165.119 4.89091 165.072 4.85129C165.02 4.81325 164.928 4.79374 164.791 4.79374ZM162.267 7.54757V4.21826H165.135C165.397 4.21826 165.595 4.26774 165.722 4.36846C165.838 4.46988 165.896 4.63541 165.896 4.8652V5.6062C165.896 5.82877 165.838 5.99323 165.722 6.0973C165.597 6.20014 165.402 6.24981 165.135 6.24981H163.035V7.54757H162.267ZM166.965 7.54757V6.92207H168.886H169.973V6.37518H167.798C167.472 6.37518 167.254 6.31795 167.14 6.20596C167.023 6.09767 166.965 5.89126 166.965 5.58663V4.21826H167.748V5.80061H169.973V4.21826H170.755V6.76095C170.755 7.06276 170.698 7.26776 170.587 7.38081C170.466 7.49139 170.243 7.54757 169.922 7.54757H168.827H167.798H166.965ZM227.636 7.55461V4.21896H228.442V7.55461H227.636ZM223.503 4.21896V7.54827H226.372C226.635 7.54827 226.831 7.49879 226.958 7.40053C227.074 7.29664 227.135 7.13023 227.135 6.90272V6.16034C227.135 5.9383 227.074 5.77613 226.958 5.67224C226.832 5.5687 226.638 5.51618 226.372 5.51618H224.268V4.21896H223.503ZM226.027 6.97386H224.268V6.08936H226.027C226.163 6.08936 226.255 6.10943 226.307 6.14852C226.354 6.1899 226.378 6.25574 226.378 6.354V6.71006C226.378 6.80638 226.354 6.87561 226.307 6.91611C226.256 6.9552 226.163 6.97386 226.027 6.97386ZM221.388 4.81399H219.279V6.92281H221.388V6.20666L222.17 6.36545V6.76166C222.17 7.06206 222.113 7.26847 221.999 7.38152C221.879 7.4921 221.658 7.54827 221.335 7.54827H219.332C219.009 7.54827 218.788 7.4921 218.668 7.38152C218.554 7.26847 218.495 7.06206 218.495 6.76166V5.00519C218.495 4.70566 218.554 4.49876 218.668 4.38818C218.787 4.27513 219.007 4.21896 219.332 4.21896H221.335C221.658 4.21896 221.88 4.27513 221.999 4.38818C222.113 4.49876 222.17 4.70569 222.17 5.00697V5.32407L221.388 5.44664V4.81399ZM216.955 7.54827V4.21896H214.085C213.819 4.21896 213.627 4.26844 213.499 4.36916C213.383 4.47059 213.325 4.63611 213.325 4.8659V5.64548C213.325 5.86717 213.383 6.0316 213.499 6.13567C213.62 6.23956 213.815 6.29098 214.085 6.29098H214.522L212.973 7.54827H214.091L215.445 6.29098H216.188V7.54827H216.955ZM214.43 4.79443H216.188V5.72221H214.43C214.295 5.72221 214.201 5.70464 214.151 5.6659C214.103 5.62452 214.078 5.55531 214.078 5.45863V5.05749C214.078 4.96029 214.103 4.89161 214.151 4.85199C214.201 4.81396 214.295 4.79443 214.43 4.79443ZM211.852 7.54827V4.21896H211.319L208.958 6.18043C208.86 6.25579 208.787 6.31531 208.744 6.36109C208.7 6.40406 208.643 6.46548 208.574 6.54225C208.579 6.46319 208.586 6.39015 208.59 6.32816C208.593 6.26442 208.595 6.20575 208.6 6.14852C208.605 6.09798 208.607 6.03744 208.607 5.96543V4.21896H207.904V7.54827H208.438L210.905 5.4891C210.965 5.4361 211.017 5.38892 211.059 5.34894C211.106 5.30404 211.146 5.26124 211.182 5.2188C211.179 5.2579 211.176 5.30735 211.169 5.37039C211.165 5.43378 211.161 5.47907 211.155 5.50866C211.152 5.57346 211.148 5.65303 211.148 5.74935V7.54827H211.852ZM202.516 7.54827V4.21896H203.3V5.50866H205.74V4.21896H206.527V7.54827H205.74V6.11616H203.3V7.54827H202.516ZM197.254 7.54827L199.146 4.21896H199.901L201.827 7.54827H200.948L200.546 6.81888H198.417L198.028 7.54827H197.254ZM198.755 6.21811H200.228L199.498 4.8659L198.755 6.21811ZM193.517 7.54827V4.84532H195.741V7.54827H196.523V4.21896H195.69H192.736V5.00519V7.54827H193.517ZM186.948 7.54827V4.21896H187.577L189.158 6.2304L190.706 4.21896H191.333V7.54827H190.61V5.4891C190.61 5.43099 190.612 5.38133 190.615 5.34224C190.621 5.2917 190.628 5.22213 190.635 5.13567C190.613 5.17634 190.592 5.21737 190.574 5.254C190.557 5.29397 190.54 5.32412 190.524 5.34894C190.491 5.41146 190.462 5.45706 190.439 5.4833L189.178 7.14873H189.022L187.758 5.47657C187.719 5.42604 187.679 5.36655 187.642 5.29559C187.601 5.23396 187.573 5.18004 187.557 5.13567C187.564 5.20681 187.571 5.27111 187.577 5.32993V5.4891V7.54827H186.948ZM182.269 6.92281H184.845V4.81399H182.269V6.92281ZM181.488 5.00519C181.488 4.70426 181.544 4.49823 181.654 4.38818C181.775 4.27513 181.997 4.21896 182.321 4.21896H184.794C185.121 4.21896 185.338 4.27513 185.452 4.38818C185.571 4.49735 185.629 4.70426 185.629 5.00519V6.76166C185.629 7.06435 185.571 7.27129 185.452 7.38152C185.338 7.4921 185.119 7.54827 184.794 7.54827H182.321C181.997 7.54827 181.777 7.4921 181.654 7.38152C181.544 7.26847 181.488 7.06347 181.488 6.76166V5.00519ZM176.593 7.54827V4.21896H177.382V5.6069L179.242 4.21896H180.377L178.15 5.78701L180.649 7.54827H179.391L177.382 6.08354V7.54827H176.593Z" fill="white"/>
<path fill-rule="evenodd" clip-rule="evenodd" d="M50.8294 40.8918C54.3555 34.717 50.7066 24.9615 42.651 25.4273C38.9774 25.6398 35.6332 28.2986 35.4792 32.6205C35.3549 36.1042 38.0312 39.3364 42.4744 39.2922C44.8323 39.2688 47.3415 37.6088 47.2942 34.3429C47.2511 31.3642 44.6832 30.0404 43.285 30.0404C41.8868 30.0404 39.719 31.7212 40.8185 33.3563C41.6068 34.5283 42.8923 33.2163 42.8923 33.2163C42.8923 33.2163 44.4808 32.6333 44.9196 34.1832C45.3442 35.6821 44.4016 37.1246 42.0147 37.0621C39.4857 37.0001 37.5376 35.1313 37.679 32.6248C37.8048 30.1028 39.7842 27.942 43.0517 27.942C46.3036 27.942 49.3861 31.0908 49.3861 34.5938C49.3861 37.7185 47.5742 41.6278 42.6433 41.9574C37.1381 42.3255 32.5154 38.6965 32.5154 33.1542C32.4768 27.0432 36.9583 23.284 42.358 23.5623C52.8394 24.1026 54.7795 35.322 50.8294 40.8918Z" fill="#FAB31C"/>
<path fill-rule="evenodd" clip-rule="evenodd" d="M60.7714 30.1622C60.7714 28.4047 57.7268 28.2617 57.7268 30.1622V40.1646L46.7262 49.9787V71.5447L54.682 64.1166V52.8045L60.7714 47.4117V30.1622ZM23.8418 30.1622C23.8418 28.4047 26.8864 28.2617 26.8864 30.1622V40.1646L37.887 49.9787V71.5447L29.9312 64.1166V52.8045L23.8418 47.4117V30.1622Z" fill="#FAB31C"/>
</svg>
